<svg width="10" height="19" viewBox="0 0 10 19" fill="none" xmlns="http://www.w3.org/2000/svg">
<path d="M2.09035 9.24249L9.62305 16.7752C9.82177 16.9739 9.91856 17.2079 9.91343 17.4771C9.90829 17.7463 9.80637 17.9803 9.60765 18.179C9.40895 18.3777 9.17498 18.4771 8.90575 18.4771C8.63652 18.4771 8.40255 18.3777 8.20385 18.179L0.5327 10.5232C0.3519 10.3425 0.217917 10.1399 0.13075 9.91557C0.0435833 9.6912 0 9.46684 0 9.24249C0 9.01814 0.0435833 8.79379 0.13075 8.56942C0.217933 8.34507 0.351917 8.14251 0.5327 7.96174L8.20385 0.290593C8.40255 0.0918767 8.63908 -0.00492401 8.91345 0.000192658C9.1878 0.00532599 9.42433 0.107251 9.62305 0.305968C9.82177 0.504685 9.92113 0.738651 9.92113 1.00787C9.92113 1.2771 9.82177 1.51108 9.62305 1.70979L2.09035 9.24249Z" fill="#0D1220"/>
</svg>
